Patient4_TMGait_0pt5_02_right_24_EMG.mot
version=1
nRows=26
nColumns=33
inDegrees=no
endheader
time	1LAddLong	2LGlutMax	3LGlutMed	4LIliopsoas	5LSemiMemb	6LBicFemLong	7LRecFem	8LVastMed	9LVastLat	10LGasMed	11LTibAnt	12lTibPost	13LPeroneusLong	14LSol	15LExtDigLong	16LFlexDigLong	17RAddLong	18RGlutMax	19RGlutMed	20RIliopsoas	21RSemiMemb	22RBicFemLong	23RRecFem	24RVastMed	25RVastLat	26RGasMed	27RTibAnt	28RTibPost	29RPeroneusLong	30RSol	31RExtDigLong	32RFlexDigLong
32.18	-0.006866	0.41519	-0.015564	0.001068	-0.016174	0.014496	0.050507	0.000305	-0.046844	-0.019379	-0.052185	0.011444	0.10086	0.093384	-0.049744	0.048828	0.000458	-0.11169	-0.098114	-0.015259	-0.044098	0.091705	-0.16769	0.03479	0.001831	0.039978	-0.033569	0.026398	0.45212	-0.26016	-0.001831	0.00412
32.181	-0.033112	0.42435	-0.013275	0.010071	-0.051575	-0.031281	0.11215	-0.002594	-0.29098	-0.001221	-0.016479	0.012512	0.050201	0.095367	-0.17807	0.026398	0.001221	-0.11185	-0.10162	-0.039063	-0.00473	0.048981	-0.16174	-0.010834	-0.005035	0.049744	-0.018768	0.00351	0.56076	-0.27634	0	-0.007782
32.182	-0.03067	0.38147	-0.010834	0.017548	-0.027924	0.009155	0.073242	-0.004883	-0.41641	0.008698	-0.000916	0.01297	0.016785	0.12878	-0.16357	0.027618	-0.030823	-0.099182	-0.078125	-0.031891	0.000916	0.045319	-0.13123	0.000153	-0.022583	0.050964	-0.016022	-0.015411	0.50003	-0.088959	-0.005493	-0.009613
32.183	-0.008545	0.37674	-0.015259	0.014191	-0.006714	-0.001984	0.03067	-0.001678	-0.35004	0.016479	-0.010529	0.015411	0.019379	0.1091	-0.19531	0.00473	-0.041809	-0.10498	-0.027618	-0.011902	0.055389	0.020752	-0.11246	-0.018005	-0.028992	0.012817	0.032043	-0.02533	0.31174	0.068207	-0.003815	-0.004272
32.184	-0.009766	0.39597	-0.01358	0.024719	-0.031433	-0.19394	0.050659	0.006104	-0.17975	0.007935	-0.000153	0.010529	0.012054	0.1152	0.057373	0.020599	-0.067139	-0.16388	-0.08316	0.056	0.037994	-0.085754	-0.16632	0.015564	-0.016479	-0.0383	0.091553	-0.036011	0.11322	0.1297	-0.000763	0.000305
32.185	-0.005188	0.40909	-0.000916	0.03479	-0.049438	-0.14374	0.063782	0.012665	-0.083466	0.00412	0.011597	0.014954	0.007324	0.097504	0.2446	0.009613	-0.056915	-0.17364	-0.069733	0.075989	0.10788	-0.14603	-0.16953	0.010071	-0.015717	-0.037231	0.11337	-0.036011	0.14145	0.086365	-0.00351	-0.011597
32.186	-0.006714	0.44235	0.001831	0.02655	-0.031433	-0.10223	0.032196	0.018463	-0.066376	-0.005188	-0.00351	0.018005	0.002441	0.12894	-0.038757	-0.012207	-0.041351	-0.19943	-0.006561	0.055847	0.070953	-0.029602	-0.1326	0.011749	-0.0354	-0.05188	0.12894	-0.044861	0.21896	-0.046997	-0.001678	-0.012817
32.187	0.012817	0.43228	0.029907	-0.000916	-0.014038	-0.067444	0.000153	0.018463	-0.059967	-0.023956	-0.010529	0.01236	-0.014343	0.12711	-0.01358	-0.026398	-0.037079	-0.17029	-0.085144	0.022278	-0.11078	0.112	-0.12665	-0.016632	-0.042725	-0.055237	0.08728	-0.052795	0.13809	-0.095062	-0.001831	-0.010986
32.188	0.014496	0.48416	0.042114	-0.002289	-0.001678	-0.027618	-0.030975	0.018921	-0.049744	-0.014496	-0.003357	0.016327	-0.018005	0.12909	-0.16861	-0.048523	-0.013275	-0.26321	-0.098114	-0.084381	-0.078278	0.1413	-0.17349	0.011902	-0.028839	-0.028229	0.002594	-0.062103	0.067291	-0.17029	-0.00351	-0.010223
32.189	0.005646	0.45609	0.051727	0.02182	-0.02533	-0.013885	-0.051575	0.008545	-0.006714	-0.023804	0.014801	0.009308	-0.023804	0.121	-0.090485	-0.055542	0.00473	-0.33295	-0.075073	-0.11993	-0.011749	0.06424	-0.16068	0.018768	-0.0383	-0.00946	-0.088348	-0.076904	-0.000305	-0.19257	-0.004883	-0.011597
32.19	-0.009308	0.47134	0.051422	0.000153	-0.089722	0.040283	-0.038452	0.024109	0.087128	-0.022736	0.024567	0.011749	-0.044861	0.12604	-0.050354	-0.070496	0.039673	-0.36285	-0.14694	-0.086517	-0.080414	-0.033569	-0.16815	0.018921	-0.019531	0.003052	-0.09491	-0.041199	-0.18829	-0.39993	-0.005798	-0.001831
32.191	-0.035248	0.36835	0.084534	0.010071	-0.17868	0.23102	-0.066376	0.025635	0.13473	-0.029144	0.024872	0.005188	-0.052185	0.1471	-0.039063	-0.057373	0.049133	-0.35858	-0.074463	0.051117	-0.059052	-0.082245	-0.16373	-0.006866	-0.017395	-0.056763	-0.066681	-0.046692	-0.14389	-0.50323	0.000458	-0.009155
32.192	-0.067902	0.28107	0.11261	0.022278	-0.2562	0.37796	-0.003815	0.01236	0.14328	-0.023651	0.016022	0.007629	-0.074921	0.14221	-0.036011	-0.048065	0.00351	-0.41199	0.021973	0.12283	0.046692	-0.1239	-0.13825	0.031128	-0.023956	-0.13214	-0.020294	-0.00824	-0.25497	-0.67413	-0.003357	-0.026093
32.193	-0.082092	0.28824	0.11963	0.014496	-0.33752	0.36209	0.017853	0.027618	0.080719	-0.0383	0.008545	0.002136	-0.087128	0.15503	-0.032349	-0.044556	-0.000916	-0.3685	0.042572	0.15442	0.044098	-0.16861	-0.15533	-0.001373	-0.028381	-0.087738	-0.044861	0.029144	-0.28046	-1.2675	-0.004883	-0.022888
32.194	-0.046082	0.22369	0.089264	0.024261	-0.28992	0.1831	-0.057068	0.043945	0.077667	-0.037842	-0.007019	-0.000916	-0.090179	0.14801	-0.019226	-0.049744	-0.008545	-0.35019	0.002594	0.11124	0.096893	-0.14557	-0.23025	0.030365	-0.027771	0.009003	-0.03952	0.015259	-0.08606	-0.76096	-0.001373	-0.020905
32.195	0.010529	0.23377	0.078888	0.02121	0.074158	-0.023651	-0.087585	0.04776	0.11627	-0.030975	-0.017853	-0.006256	-0.11063	0.15182	-0.006561	-0.031586	-0.024567	-0.34988	-0.02121	0.056	0.10635	-0.11444	-0.22614	-0.007782	-0.023956	-0.027008	0.013733	-0.041656	0.050812	0.14862	-0.007324	-0.023193
32.196	0.043488	0.2066	0.067139	0.006561	0.30212	-0.033722	-0.13657	0.040283	0.076752	-0.037231	-0.003204	-0.001526	-0.13321	0.14023	0.019989	-0.042267	-0.005646	-0.31815	0.023804	0.049896	0.069885	0.017242	-0.16815	-0.027771	-0.043335	0.001831	0.050201	0.045929	-0.005493	0.73151	0.000916	-0.027466
32.197	0.047302	0.19012	0.060272	-0.010986	0.29694	0.070496	-0.029755	0.024414	-0.064087	-0.03479	-0.002441	-0.007477	-0.16937	0.1329	0.049438	-0.03418	0.003662	-0.28153	0.009003	0.030823	-0.008392	0.16953	-0.16556	-0.026093	-0.042419	0.092773	0.044861	-0.87036	-0.12665	1.8497	-0.007019	-0.007782
32.198	0.039825	0.1593	0.028381	-0.007172	0.21362	0.15289	-0.01358	-0.009613	-0.1593	-0.042572	-0.006866	-0.009766	-0.17777	0.12619	0.044403	-0.036011	0.015106	-0.21179	0.023346	-0.010223	-0.023651	0.16022	-0.15823	-0.010223	-0.046539	0.10361	0.019684	0.13275	-0.23941	2.2186	-0.003815	-0.013428
32.199	0.025635	0.10605	-0.019531	0.001984	0.12405	0.12543	-0.016327	-0.02182	-0.11231	-0.038605	-0.00412	-0.005035	-0.19211	0.1062	0.028687	-0.037842	0.030823	-0.27054	0.02594	0.003662	-0.092468	0.041351	-0.17532	-0.027466	-0.032501	0.070801	0.016632	0.44296	-0.32394	1.543	-0.009003	-0.021973
32.2	-0.000916	-0.020752	-0.079041	-0.015259	0.044403	0.011292	0.06424	-0.039825	-0.083008	-0.041504	-0.004883	-0.011749	-0.21271	0.11398	-0.005188	-0.040436	0.044556	-0.28275	0.05249	-0.02121	-0.020752	0.018158	-0.21561	0.003815	-0.029144	0.001221	0.028992	0.10819	-0.26199	0.54016	-0.001526	-0.027771
32.201	-0.015869	-0.16281	-0.11871	0.013885	0.004272	0.024872	0.096588	-0.050049	-0.12131	-0.027466	-0.000763	-0.018311	-0.18539	0.083771	0.005188	-0.025177	0.06073	-0.336	0.056	-0.023651	0.037689	-0.095825	-0.23773	0.027466	-0.028229	-0.039673	0.040741	0.065765	0.093384	-0.43228	0.000916	-0.022278
32.202	-0.001526	-0.24292	-0.12711	0.015259	0.022125	-0.056152	0.11231	-0.031128	-0.2243	-0.024719	-0.004883	-0.013885	-0.17288	0.064392	-0.001831	-0.024567	0.044403	-0.26138	0.096893	-0.00885	-0.0354	-0.17105	-0.25177	0.000305	-0.018158	-0.01297	0.031891	0.1799	0.26215	-0.19455	0.006409	-0.025482
32.203	-0.006561	-0.21301	-0.12741	0.001373	0.05249	-0.16632	0.09903	-0.014191	-0.45929	-0.027161	0.001221	-0.015106	-0.1648	0.056	-0.003357	-0.018005	0.023956	-0.31403	0.10315	-0.009003	-0.15457	-0.11902	-0.26321	-0.009155	-0.026093	0.002441	0.062408	0.18326	0.24674	-0.73685	0.002441	-0.030212
32.204	-0.019531	-0.19501	-0.1297	-0.004578	0.052032	-0.24811	0.044098	-0.014648	-0.4245	-0.011444	-0.000305	-0.018463	-0.16769	0.033722	-0.029602	-0.021515	-0.018463	-0.27084	0.097809	0.001526	-0.023346	-0.014038	-0.31555	0.053558	-0.027313	0.022583	0.041504	0.12329	0.17761	-0.63355	-0.00061	-0.03479
32.205	-0.005798	-0.1471	-0.16602	-0.00824	0.021362	-0.30182	0.050812	-0.014801	-0.23621	0.016632	-0.003815	-0.016785	-0.1915	0.014648	-0.034943	-0.022125	-0.009766	-0.32166	0.067291	-0.006409	0.048981	-0.026398	-0.27451	0.014648	-0.031128	0.007324	0.047607	0.028839	0.13321	0	-0.000458	-0.030212
